<svg width="24" height="24" viewBox="0 0 24 24" fill="none" xmlns="http://www.w3.org/2000/svg">
<path d="M12.5156 22.2187L12.4781 22.2126C12.4834 22.2167 12.4896 22.2194 12.4961 22.2205C12.5027 22.2215 12.5094 22.2209 12.5156 22.2187Z" fill="#fff"/>
<path d="M21.0422 8.80219C21.0315 8.74563 21.0022 8.69426 20.959 8.65625C20.9158 8.61823 20.8611 8.59574 20.8036 8.59235C20.7462 8.58895 20.6892 8.60485 20.6418 8.63752C20.5944 8.67019 20.5593 8.71775 20.542 8.77266C20.5255 8.82479 20.4929 8.87033 20.4488 8.90276C20.4048 8.93518 20.3516 8.95281 20.2969 8.95313H19.5717C19.5248 8.95317 19.4788 8.94037 19.4386 8.91609L18.3895 8.28703C18.3494 8.26276 18.3033 8.24995 18.2564 8.25H16.5783C16.5272 8.24995 16.4773 8.26512 16.4349 8.29359L14.3653 9.67313C14.3295 9.69695 14.3003 9.72931 14.2801 9.76728C14.26 9.80526 14.2497 9.84765 14.25 9.89063V11.8472C14.25 11.8941 14.2627 11.9401 14.2868 11.9803C14.3109 12.0205 14.3455 12.0534 14.3869 12.0755L17.1005 13.5239C17.1412 13.5458 17.1754 13.5783 17.1995 13.6178C17.2236 13.6574 17.2366 13.7026 17.2374 13.7489L17.25 14.85C17.2507 14.8956 17.2635 14.9402 17.2869 14.9793C17.3104 15.0184 17.3437 15.0506 17.3836 15.0727L18.4739 15.6759C18.5143 15.6984 18.548 15.7312 18.5715 15.771C18.595 15.8108 18.6074 15.8561 18.6075 15.9023V18.1805C18.6075 18.2303 18.6219 18.279 18.6489 18.3208C18.6759 18.3626 18.7144 18.3958 18.7598 18.4163C18.8052 18.4367 18.8555 18.4437 18.9047 18.4363C18.954 18.4289 19 18.4075 19.0374 18.3745C19.477 17.9873 20.1075 17.422 20.1914 17.2927C20.3302 17.078 20.4603 16.8581 20.5819 16.6331C20.8336 16.1669 21.0468 15.6809 21.2194 15.18C21.8138 13.4592 21.3441 10.3659 21.0422 8.80219Z" fill="#fff"/>
<path d="M13.425 14.1938L10.5501 12.0375C10.5177 12.0132 10.4782 12 10.4376 12H9.07357C9.05023 12 9.02712 11.9955 9.00556 11.9865C8.98401 11.9776 8.96442 11.9645 8.94794 11.948L8.30482 11.3049C8.28739 11.2874 8.26671 11.2736 8.24394 11.2642C8.22118 11.2548 8.19679 11.25 8.17216 11.25H5.67888C5.64374 11.25 5.60939 11.2396 5.58017 11.2201C5.55096 11.2006 5.52819 11.1728 5.51474 11.1403C5.50129 11.1079 5.49777 11.0722 5.50463 11.0377C5.51149 11.0032 5.52841 10.9716 5.55325 10.9467L5.94794 10.552C5.96442 10.5355 5.98401 10.5224 6.00556 10.5135C6.02712 10.5046 6.05023 10.5 6.07357 10.5H7.59091C7.67263 10.5 7.75212 10.4733 7.81727 10.424C7.88243 10.3747 7.92968 10.3054 7.95185 10.2267L8.27482 9.07829C8.2817 9.05361 8.29357 9.0306 8.3097 9.01069C8.32582 8.99078 8.34586 8.97438 8.36857 8.96251L9.65622 8.2997C9.6852 8.28472 9.70949 8.26206 9.72644 8.2342C9.74339 8.20634 9.75234 8.17434 9.75232 8.14173V7.55579C9.75237 7.51944 9.76349 7.48396 9.78419 7.45407L10.4686 6.46876C10.4891 6.43916 10.5182 6.41658 10.552 6.40407L11.5097 6.04454C11.5435 6.03185 11.5727 6.00911 11.5933 5.97937C11.6139 5.94963 11.625 5.91431 11.625 5.87814V5.34376C11.625 5.31446 11.6177 5.28561 11.6039 5.25977C11.5901 5.23393 11.5701 5.2119 11.5458 5.19563L10.5858 4.5572C10.5594 4.53984 10.5289 4.52975 10.4974 4.52794C10.4659 4.52613 10.4344 4.53267 10.4062 4.54689L9.09935 5.20032C9.06945 5.21508 9.036 5.22111 9.00283 5.21771C8.96966 5.21431 8.93813 5.20162 8.91185 5.1811L8.29216 4.69126C8.27101 4.67425 8.25403 4.65264 8.24251 4.62807C8.23099 4.6035 8.22524 4.57662 8.22569 4.54949C8.22615 4.52236 8.23279 4.49568 8.24512 4.47151C8.25745 4.44734 8.27515 4.4263 8.29685 4.41001L8.80029 4.03923C8.82308 4.02251 8.84154 4.00059 8.85413 3.97528C8.86672 3.94998 8.87307 3.92203 8.87266 3.89377C8.87224 3.8655 8.86508 3.83775 8.85175 3.81283C8.83843 3.7879 8.81934 3.76652 8.79607 3.75048L8.01185 3.20345C7.9847 3.18433 7.95273 3.17323 7.91958 3.17141C7.88642 3.16959 7.85343 3.17711 7.82435 3.19314C7.54075 3.34829 6.70872 3.80767 6.41341 4.01438C5.04705 4.97257 3.94744 6.26319 3.21841 7.76439C3.1331 7.94064 3.02763 8.12017 3.01732 8.31376C3.007 8.50735 2.85513 8.93954 2.79185 9.11439C2.78331 9.13802 2.7799 9.1632 2.78184 9.18825C2.78378 9.2133 2.79103 9.23766 2.8031 9.2597L4.47607 12.3338C4.49112 12.3617 4.51348 12.385 4.54075 12.4013L6.30091 13.4578C6.32374 13.4714 6.34323 13.49 6.35791 13.5121C6.3726 13.5343 6.38211 13.5595 6.38575 13.5858L6.73825 16.1424C6.7417 16.1669 6.75018 16.1904 6.76317 16.2114C6.77616 16.2325 6.79337 16.2506 6.81372 16.2647L8.18716 17.2088C8.22695 17.2361 8.25465 17.2777 8.2645 17.325L8.99294 20.7844C8.99702 20.8047 9.00481 20.8241 9.01591 20.8416C9.08435 20.9522 9.35716 21.3572 9.68622 21.4172C9.65575 21.4256 9.62857 21.4449 9.5981 21.4538C9.67714 21.4677 9.75538 21.4858 9.83247 21.5081C9.92622 21.5334 10.02 21.555 10.1137 21.5752C10.2604 21.6042 10.275 21.6267 10.3453 21.4964C10.439 21.322 10.5464 21.262 10.6265 21.2405C10.6596 21.2329 10.6899 21.2161 10.7138 21.192C10.7378 21.168 10.7545 21.1376 10.762 21.1045L11.234 18.9164C11.244 18.8706 11.2707 18.8301 11.309 18.803L13.4184 17.3077C13.4429 17.2903 13.4629 17.2674 13.4767 17.2407C13.4905 17.214 13.4977 17.1844 13.4976 17.1544V14.3438C13.4979 14.3148 13.4915 14.2863 13.4789 14.2602C13.4663 14.2342 13.4478 14.2115 13.425 14.1938Z" fill="#fff"/>
<path d="M12.2812 2.25C12.2812 2.25 12.1101 2.25984 12.0755 2.26078C11.8214 2.26828 11.568 2.28578 11.3151 2.31328C10.3935 2.41326 9.49096 2.64451 8.63483 3C8.74873 3.07875 8.5528 3.15094 8.5528 3.15094L8.85936 3.75H10.5L11.625 4.3125L12.6094 3.75L12.2812 2.25Z" fill="#fff"/>
<path d="M16.6046 5.6278L17.3597 4.97155C17.3834 4.95103 17.4015 4.92493 17.4124 4.89561C17.4234 4.86629 17.4268 4.8347 17.4225 4.80371C17.4181 4.77272 17.406 4.74331 17.3874 4.71818C17.3687 4.69305 17.3441 4.67299 17.3157 4.65983L16.4339 4.25061C16.3891 4.22972 16.3379 4.22735 16.2914 4.24403C16.2449 4.26071 16.2068 4.29508 16.1855 4.33967L15.8222 5.09952C15.8024 5.14106 15.7986 5.18842 15.8115 5.23259C15.8244 5.27676 15.8531 5.31465 15.8921 5.33905L16.3824 5.64561C16.4164 5.66681 16.4564 5.67651 16.4964 5.67331C16.5364 5.6701 16.5743 5.65415 16.6046 5.6278Z" fill="#fff"/>
<path d="M20.1393 6.59393L19.8661 6.17206C19.8618 6.1655 19.8581 6.15893 19.8543 6.1519C19.8051 6.05112 19.3978 5.22846 19.0575 4.90925C18.802 4.66784 18.7293 4.73721 18.7092 4.79065C18.6977 4.8202 18.6784 4.84611 18.6534 4.86565L17.3015 5.95831C17.2682 5.98524 17.2267 5.99997 17.1839 6.00003H16.484C16.4594 6.00001 16.435 6.00484 16.4122 6.01425C16.3895 6.02366 16.3688 6.03746 16.3514 6.05487L15.7889 6.61737C15.7714 6.63478 15.7576 6.65546 15.7482 6.67823C15.7387 6.70099 15.7339 6.72539 15.7339 6.75003C15.7339 6.77467 15.7387 6.79907 15.7482 6.82183C15.7576 6.84459 15.7714 6.86527 15.7889 6.88268L16.3514 7.44518C16.3688 7.46259 16.3895 7.47639 16.4122 7.4858C16.435 7.49521 16.4594 7.50005 16.484 7.50003H20.0076C20.0329 7.50005 20.058 7.49495 20.0813 7.48503C20.1046 7.47511 20.1256 7.46059 20.1431 7.44232C20.1606 7.42406 20.1743 7.40244 20.1832 7.37876C20.1921 7.35508 20.1962 7.32984 20.1951 7.30456L20.1693 6.68815C20.168 6.65463 20.1576 6.62209 20.1393 6.59393Z" fill="#fff"/>
<path d="M12 3.375C13.9954 3.37483 15.9292 4.06657 17.4718 5.33235C19.0144 6.59812 20.0704 8.35962 20.4599 10.3167C20.8493 12.2738 20.5481 14.3053 19.6076 16.0652C18.6671 17.8251 17.1454 19.2045 15.3019 19.9682C13.4584 20.732 11.4071 20.8329 9.49757 20.2538C7.58801 19.6747 5.93832 18.4513 4.8296 16.7923C3.72088 15.1332 3.22173 13.141 3.4172 11.1551C3.61266 9.16928 4.49065 7.31264 5.90156 5.90156C6.70049 5.09807 7.65087 4.46104 8.69767 4.02735C9.74448 3.59366 10.8669 3.37193 12 3.375ZM12 1.5C6.20156 1.5 1.5 6.20156 1.5 12C1.5 17.7984 6.20156 22.5 12 22.5C17.7984 22.5 22.5 17.7984 22.5 12C22.5 6.20156 17.7984 1.5 12 1.5Z" fill="#fff"/>
</svg>
