<svg xmlns="http://www.w3.org/2000/svg" viewBox="0 0 24 30"><g fill="#fff"><path d="M15.522 2.905c.029-.024.128-.061.181-.081.147-.055.423-.159.438-.458.006-.11-.026-.316-.331-.465a3.402 3.402 0 00-1.797-.213c-.188.022-.436.017-.696.012-.762-.014-1.624-.028-2.151.428l.262.303-.329-.245c-.413.356-.74.637-.604 1.001.034.093.153.31.507.31.172 0 .311-.031.412-.053l.031-.007a.924.924 0 01.041.502c-.074.469-.007.944.197 1.385.057.113.102.218.141.308.121.279.234.542.541.581a.638.638 0 00.061.003c.266 0 .434-.22.491-.295.301-.39.813-.869.943-.91.434-.039.83-.262 1.108-.645a1.11 1.11 0 00.142-.499c.004-.037.009-.088.013-.097.331-.236.377-.537.41-.757.007-.056.053-.122-.011-.108zm-.728-.286a2.64 2.64 0 00-.055.273c-.027.182-.036.193-.085.228-.301.217-.327.503-.343.674l-.013.13a.734.734 0 01-.541.293c-.42.069-.954.609-1.262.958a8.482 8.482 0 00-.094-.2 1.575 1.575 0 01-.131-.9c.072-.374.016-.765-.197-1.161a.73.73 0 00-.301-.241c.338-.194 1.018-.183 1.53-.174.302.005.584.008.816-.019.247-.038.493-.041.736-.011a.671.671 0 00-.06.15z"/><path d="M23.527 14.904A11.84 11.84 0 0023.9 12c0-3.638-1.645-6.895-4.225-9.079-.008-.008-.011-.019-.02-.027-.009-.008-.02-.011-.029-.018A11.846 11.846 0 0012 .1C5.809.1.712 4.854.156 10.902v.005C.122 11.268.1 11.631.1 12c0 6.562 5.338 11.9 11.9 11.9 5.483 0 10.099-3.733 11.473-8.786a.39.39 0 00.057-.194c0-.006-.003-.01-.003-.016zM23.1 12c0 .874-.112 1.72-.304 2.536a2.635 2.635 0 00-2.249 1.44 1.874 1.874 0 01-1.674 1.022h-.299a.688.688 0 01-.682-.633 2.06 2.06 0 00-1.286-1.716.467.467 0 01-.298-.469.469.469 0 01.158-.324c1.188-1.045 2.5-2.212 2.5-2.212.324-.284.561-.651.685-1.061a2.28 2.28 0 00-.172-1.752 2.287 2.287 0 00-1.367-1.119 10.65 10.65 0 01-.539-.174l-.312-.104a.49.49 0 01-.225-.751 39.125 39.125 0 012.381-2.919C21.671 5.798 23.1 8.732 23.1 12zM6.579 2.323a26.625 26.625 0 012.882 2.183c.545.496.758 1.245.555 1.951a.907.907 0 01-.956.643h-.098c-.805.01-1.479.329-1.959.902a.918.918 0 01-.848.285l-.371-.07a1.73 1.73 0 00-1.309.275 1.73 1.73 0 00-.731 1.12c-.079.417-.003.847.211 1.21l.533.914c.482.805 1.482 1.104 2.379.664.52-.254 1.135-.242 1.591-.001l3.201 2.439c.15.114.248.28.273.467a.695.695 0 01-.281.665l-.237.178a3.761 3.761 0 00-1.488 2.407l-.04.256a.38.38 0 01-.129.226 2.242 2.242 0 00-.658.727 11.882 11.882 0 00-1.328-2.333l-.241-.321a7.484 7.484 0 01-1.224-2.505 2.531 2.531 0 00-1.964-1.829 1.63 1.63 0 01-.606-.243L.973 10.766c.403-3.628 2.562-6.731 5.606-8.443zM12 23.1C5.879 23.1.9 18.12.9 12c0-.108.013-.213.016-.321l2.385 1.526c.275.18.577.3.891.357.653.13 1.167.61 1.342 1.253a8.269 8.269 0 001.356 2.774l.237.316c.493.675.909 1.404 1.246 2.191a.782.782 0 001.39.088c.119-.198.274-.367.474-.511a1.19 1.19 0 00.439-.739l.038-.249a2.963 2.963 0 011.176-1.897l.238-.179a1.495 1.495 0 00.596-1.415 1.5 1.5 0 00-.581-.995l-3.252-2.473c-.737-.397-1.625-.415-2.425-.018a.992.992 0 01-1.29-.382l-.532-.911a.95.95 0 01.281-1.265.94.94 0 01.709-.149l.37.07a1.736 1.736 0 001.601-.546A1.759 1.759 0 018.952 7.9h.008l.072-.001a1.694 1.694 0 001.752-1.219 2.71 2.71 0 00-.791-2.771 27.276 27.276 0 00-2.602-1.994A11.02 11.02 0 0112 .9c2.565 0 4.923.883 6.805 2.35a39.78 39.78 0 00-2.414 2.961 1.279 1.279 0 00-.235.959A1.279 1.279 0 0017 8.191l.314.105c.188.064.38.129.572.184.384.116.698.375.888.729.188.353.229.759.111 1.143a1.498 1.498 0 01-.448.694s-1.311 1.167-2.499 2.211a1.273 1.273 0 00.37 2.137c.439.177.74.579.786 1.044.062.763.711 1.36 1.478 1.362h.3c1.01 0 1.924-.559 2.386-1.46a1.838 1.838 0 011.315-.972C21.144 19.846 16.946 23.1 12 23.1z"/></g></svg>