<svg version="1.2" xmlns="http://www.w3.org/2000/svg" width="97" height="79"><path fill-rule="evenodd" d="M36.6 14.9c0-6.7 5.4-12.1 12.1-12.1 6.7 0 12.1 5.4 12.1 12.1 0 6.7-5.4 12.1-12.1 12.1-6.7 0-12.1-5.4-12.1-12.1zm3 0c0 5 4.1 9.1 9.1 9.1s9.1-4.1 9.1-9.1-4.1-9.1-9.1-9.1-9.1 4.1-9.1 9.1zM8 18.5c0-5.3 4.3-9.6 9.6-9.6s9.6 4.3 9.6 9.6-4.3 9.6-9.6 9.6S8 23.8 8 18.5zm7-6.1q-1.2.5-2.1 1.5-.9.9-1.4 2.1-.5 1.2-.5 2.5c0 3.7 2.9 6.6 6.6 6.6 3.6 0 6.6-2.9 6.6-6.6q0-1.3-.5-2.5t-1.5-2.1q-.9-1-2.1-1.5-1.2-.5-2.5-.5-1.4 0-2.6.5zm79.4 29.3l-5.2 20.1c-.1.2-2.5 4.7-8.9 4.7h-.1c-.7 0-7.6-.1-9-5.7l-4.4-17.2v.4q-.1.2-.1.4-.1.1-.1.3-.1.2-.1.4l-6.6 26.1-.1.1c-.1.3-3.2 5.9-11.3 5.9h-.1c-1 0-9.6-.2-11.4-7.1l-6.3-25.2-4.3 16.9c-.1.2-2.6 4.7-9 4.7-.8 0-7.7-.1-9.1-5.7L3.4 41.3c-.2-.7-1.5-5-.3-7.8.1-.2 2.3-4.7 7.1-4.7h14.7c.2 0 4.4-.1 6.7 3.7 1.4-1.7 3.8-3.7 7.5-3.7h19.2c.2 0 5.1-.2 8 4.1.8-1.3 3-4.1 6.8-4.1h14.7c.2 0 5.8-.2 7.5 5.8.2.6.3 2.3-.9 7.1zM28.6 41c1-4 1-5.4 1-5.6-1.1-3.3-3.7-3.6-4.5-3.6h-5.2l1.7 2.7q.1.1.1.2.1.1.1.3 0 .1.1.3 0 .1-.1.2l-2.8 18q-.1.3-.2.5t-.4.4q-.2.2-.4.3-.3.1-.5.1-.3 0-.5-.1-.3-.1-.5-.3-.2-.2-.3-.4-.2-.2-.2-.5l-2.7-17.8v-.5q0-.1.1-.2 0-.2.1-.3l1.7-2.9h-5c-2.9 0-4.4 3-4.4 3-.6 1.3 0 4.4.5 5.6v.1l4.9 19.6c.9 3.4 5.9 3.4 6.2 3.4V65v-1.5c4.1 0 5.9-2.4 6.2-3zm-11-7.2l-1.2 2.1 1.2 7.7 1.2-7.9zM65 36.9c-1.5-4.7-5.3-5-6.4-5h-6.5l3 3.5q.1.1.2.3.1.1.1.3.1.2.1.3 0 .2-.1.4l-5.1 24.4q0 .2-.2.4-.1.3-.3.4-.2.2-.4.3-.3.1-.5.1h-.1c-.7 0-1.3-.6-1.4-1.3l-4.8-24.1q-.1-.1-.1-.3 0-.1.1-.3 0-.2.1-.3.1-.2.2-.3l2.9-3.8h-6.6C35 31.9 33 36 33 36c-.8 1.8-.1 5.7.6 7.8v.1l6.5 25.5c1.1 4.8 7.7 4.9 8.4 4.9v1.5l.1-1.5c5.7 0 8.1-3.5 8.6-4.2l6.5-25.7c1.4-5.5 1.3-7.2 1.3-7.5zm-19.3.1l3.2 16.3 3.4-16.5-3.4-4zm46.9-1.6c-1-3.3-3.7-3.6-4.5-3.6H83l1.8 2.7q.1.1.1.3.1.1.1.2v.6l-2.9 17.9q0 .3-.1.5-.2.3-.4.4-.2.2-.4.3-.3.1-.6.1-.2 0-.5-.1-.2-.1-.4-.3-.2-.1-.4-.4-.1-.2-.1-.5l-2.7-17.7q-.1-.2-.1-.3 0-.1.1-.3V35q.1-.1.1-.2l1.8-3h-5.1c-3 0-4.4 2.9-4.5 3-.6 1.4.1 4.4.5 5.7v.1l5 19.5c.8 3.4 5.9 3.4 6.1 3.4V65v-1.5c4.1 0 5.9-2.3 6.3-2.9L91.6 41c1.1-4 1-5.3 1-5.6zm-11.9-1.6l-1.2 2 1.2 7.8 1.3-7.9zm-9.8-15.2c0-5.3 4.3-9.6 9.6-9.6s9.6 4.3 9.6 9.6-4.3 9.6-9.6 9.6-9.6-4.3-9.6-9.6zm7.1-6.1q-1.2.5-2.1 1.4-1 .9-1.5 2.1-.5 1.3-.5 2.6c0 3.6 3 6.6 6.6 6.6 3.7 0 6.6-3 6.6-6.6q0-1.3-.5-2.6-.5-1.2-1.4-2.1-.9-.9-2.1-1.4-1.2-.5-2.6-.5-1.3 0-2.5.5z" fill="#fff"/></svg>